<svg width="42" height="41" viewBox="0 0 42 41" fill="none" xmlns="http://www.w3.org/2000/svg">
    <path
            d="M20.8086 0.110352C19.5833 0.120088 18.3609 0.228961 17.1537 0.435863L17.1658 6.27575C14.024 7.07941 11.2414 8.88015 9.25128 11.3974C7.26118 13.9147 6.17535 17.0071 6.16295 20.1931C6.1525 23.3627 7.21989 26.4453 9.19611 28.9525L11.1275 27.4932C9.48073 25.4036 8.59157 22.8346 8.6009 20.1931C8.6112 17.6432 9.4461 15.1625 10.9853 13.1081C12.5246 11.0537 14.6886 9.5319 17.1658 8.76182V12.0588C15.5251 12.765 14.1349 13.9331 13.1713 15.415C12.2075 16.8969 11.7136 18.6263 11.7519 20.3838C11.7902 22.1414 12.3592 23.8483 13.3867 25.2885C14.4141 26.7286 15.854 27.8372 17.5238 28.4739V34.015H19.9618V29.0404C20.2398 29.0671 20.5229 29.0814 20.8077 29.0814C21.1949 29.0805 21.5817 29.0558 21.9657 29.0069V37.8424C21.5803 37.8667 21.1983 37.8834 20.8077 37.8834C16.9522 37.8831 13.1984 36.67 10.0973 34.422C6.99619 32.174 4.71115 29.0098 3.57761 25.3935C2.44409 21.7774 2.52177 17.9 3.79928 14.3303C5.07679 10.7606 7.48682 7.6869 10.6756 5.56031L9.30269 3.58131C5.68174 5.9953 2.94498 9.48499 1.49432 13.538C0.0436705 17.5909 -0.0444432 21.9934 1.24294 26.0991C2.53031 30.2049 5.12533 33.7973 8.64691 36.349C12.1685 38.9005 16.431 40.2769 20.8086 40.2759C22.0114 40.2708 23.2117 40.1693 24.3977 39.9721L24.4054 34.1246C27.5586 33.33 30.3541 31.5311 32.3536 29.0099C34.3531 26.4887 35.4436 23.3878 35.4542 20.1931C35.4642 17.0513 34.4148 13.9945 32.4697 11.4989L30.5297 12.9508C32.1502 15.0312 33.0244 17.5788 33.0162 20.1972C33.0074 22.7558 32.1676 25.2449 30.6187 27.3032C29.07 29.3614 26.8928 30.8814 24.4036 31.6427V28.3584C25.4769 27.9015 26.4498 27.2451 27.2689 26.4254L25.5301 24.7519C24.6113 25.6693 23.4357 26.2984 22.1521 26.5595C20.8686 26.8205 19.5349 26.7017 18.3202 26.2182C17.1055 25.7346 16.0645 24.9081 15.329 23.8434C14.5936 22.7785 14.1969 21.5235 14.1891 20.2372C14.1814 18.951 14.5628 17.6914 15.2854 16.6181C16.0079 15.5449 17.0389 14.7063 18.2476 14.2086C19.4563 13.711 20.7884 13.5767 22.0751 13.8228C23.3617 14.0688 24.5448 14.6841 25.4747 15.5908L27.1937 13.8947C26.3906 13.1104 25.4445 12.4815 24.4045 12.0404V6.46988H21.9665V11.3793C21.5826 11.3303 21.1958 11.3055 20.8086 11.3048C20.4064 11.306 20.0046 11.3339 19.6062 11.3885V2.54623C20.0062 2.52028 20.4087 2.50354 20.8086 2.50354C24.6166 2.50406 28.3267 3.68784 31.407 5.88516C34.4872 8.08248 36.7792 11.1805 37.9544 14.735C39.1297 18.2894 39.1278 22.1178 37.9489 25.6711C36.7702 29.2245 34.475 32.3202 31.3927 34.5145L32.826 36.4501C36.3259 33.9591 38.9319 30.4445 40.2705 26.4103C41.609 22.3761 41.611 18.0297 40.2764 13.9942C38.942 9.95874 36.3394 6.44168 32.842 3.94745C29.3446 1.45323 25.132 0.109978 20.8086 0.110352Z"
            fill="black"
    />
</svg>
