<svg width="34" height="34" viewBox="0 0 34 34" fill="none" xmlns="http://www.w3.org/2000/svg">
    <path fill-rule="evenodd" clip-rule="evenodd" d="M2.55691 2.32509C4.32693 0.58337 7.51151 0.303046 11.5161 1.67397C13.1923 2.26259 14.8043 3.0205 16.3269 3.93595C11.3888 7.07987 7.17086 11.2319 3.94966 16.1199C3.05789 14.5827 2.32514 12.9587 1.76279 11.2728C0.455676 7.24651 0.786898 4.06682 2.55691 2.32509ZM3.46414 16.8922C-0.203536 10.6629 -0.995237 4.68482 1.9898 1.7491C4.97483 -1.18663 10.9368 -0.301225 17.1072 3.46497C23.3374 -0.20186 29.3116 -0.993552 32.2497 1.99145C35.1879 4.97646 34.3001 10.9376 30.5355 17.1079C34.2023 23.3373 34.994 29.3113 32.009 32.2495C29.024 35.1876 23.062 34.3006 16.8915 30.536C10.6622 34.202 4.684 34.9937 1.74906 32.0087C-1.18589 29.0237 -0.302095 23.0626 3.46414 16.8922ZM16.1192 30.0513C14.582 30.9431 12.9579 31.6758 11.2721 32.2382C7.24572 33.5444 4.06599 33.214 2.32425 31.444C0.58251 29.674 0.304607 26.4895 1.67312 22.4842C2.26173 20.8079 3.01964 19.196 3.93512 17.6734C5.49368 20.1405 7.31587 22.4307 9.36958 24.5038C11.4115 26.5924 13.6747 28.4525 16.1192 30.0513ZM16.8996 29.5908C14.3752 27.9777 12.0441 26.0803 9.95205 23.9359C7.84189 21.8099 5.98245 19.4491 4.41014 16.8995C7.66342 11.8486 11.9977 7.5831 17.1 4.41096C19.6244 6.02418 21.9555 7.92156 24.0476 10.0659C26.1573 12.1927 28.0162 14.5544 29.5878 17.1047C27.9746 19.6291 26.0772 21.9602 23.9328 24.0522C21.8074 26.1605 19.4473 28.0183 16.8988 29.5892L16.8996 29.5908ZM17.6727 30.0634C19.1951 30.9788 20.8067 31.7367 22.4827 32.3254C26.4881 33.6987 29.6727 33.416 31.4419 31.6743C33.2111 29.9325 33.5423 26.7529 32.236 22.7265C31.6737 21.0407 30.9409 19.4166 30.0491 17.8794C28.4507 20.3221 26.5914 22.5836 24.504 24.6242C22.4305 26.679 20.1397 28.5023 17.6719 30.0618L17.6727 30.0634ZM30.0621 16.33C30.9775 14.8074 31.7355 13.1955 32.3241 11.5192C33.6974 7.51391 33.4147 4.32937 31.6729 2.55937C29.9312 0.789372 26.7515 0.458961 22.7251 1.76525C21.0393 2.3276 19.4151 3.06034 17.8779 3.9521C20.3203 5.55023 22.5816 7.40925 24.6219 9.49638C26.6774 11.5695 28.5012 13.86 30.0612 16.3276L30.0621 16.33ZM16.999 8.67883C17.0595 10.8785 17.9604 12.9715 19.5164 14.5275C21.0724 16.0836 23.1654 16.9844 25.3652 17.0449C23.1658 17.1054 21.0732 18.0059 19.5172 19.5614C17.9612 21.1169 17.0601 23.2093 16.999 25.4086C16.9379 23.2094 16.0369 21.1172 14.4811 19.5617C12.9253 18.0062 10.8328 17.1056 8.63362 17.0449C10.8332 16.9842 12.926 16.0833 14.4819 14.5273C16.0377 12.9713 16.9385 10.8784 16.999 8.67883Z" fill="white"/>
</svg>
