<svg width="64" height="24" viewBox="0 0 64 24" fill="none" xmlns="http://www.w3.org/2000/svg">
<path d="M1.05393 8.3359C1.06204 8.28725 1.04582 8.27509 1.00528 8.29942C0.997173 8.30752 0.993119 8.32374 0.993119 8.34807C0.993119 8.34807 1.00123 8.35617 1.01744 8.37239C1.04177 8.34807 1.05393 8.3359 1.05393 8.3359ZM4.72709 13.3591C4.88926 13.5375 5.169 13.6754 5.56632 13.7727C5.69606 13.8051 5.84606 13.8091 6.01634 13.7848C6.12986 13.7686 6.215 13.72 6.27176 13.6389C6.57988 13.2416 6.79071 12.901 6.90422 12.6172C6.94477 12.5199 7.00153 12.3821 7.0745 12.2037C7.15559 12.0091 7.21235 11.8712 7.24478 11.7901C7.28533 11.6928 7.35425 11.6239 7.45155 11.5834C7.53263 11.5509 7.5975 11.478 7.64615 11.3644C7.67048 11.2833 7.69075 11.2063 7.70697 11.1333C7.77994 10.7685 7.84076 10.4482 7.88941 10.1725C7.91373 9.99409 7.91779 9.82787 7.90157 9.67381C7.89346 9.5684 7.88536 9.45893 7.87725 9.34541C7.85292 9.02107 7.7394 8.71295 7.53669 8.42104C7.41506 8.25076 7.25289 8.12508 7.05018 8.044C6.85557 7.97102 6.67313 7.95075 6.50285 7.98318C6.30825 8.03183 6.13797 8.05616 5.99202 8.05616C5.82174 8.05616 5.4974 8.10076 5.019 8.18995C4.91358 8.20617 4.80817 8.26293 4.70276 8.36023C4.56492 8.47375 4.43924 8.61159 4.32572 8.77376C4.18787 8.97648 4.00949 9.24406 3.79056 9.57651C3.7338 9.6657 3.70947 9.75895 3.71758 9.85625C3.75001 10.3833 3.78245 10.7279 3.81488 10.8901C3.84732 11.0279 3.81083 11.1496 3.70542 11.255C3.66487 11.2955 3.64866 11.3482 3.65677 11.4131C3.68109 11.6482 3.74596 11.8063 3.85137 11.8874C3.85137 11.9766 3.8757 12.0537 3.92435 12.1185C3.95678 12.1672 4.01354 12.2077 4.09463 12.2402C4.17571 12.2807 4.22031 12.3496 4.22842 12.4469L4.19193 12.4712C4.15949 12.4631 4.14328 12.4591 4.14328 12.4591C4.10273 12.4348 4.0703 12.4388 4.04597 12.4712C4.02165 12.4956 4.02165 12.528 4.04597 12.5685C4.21625 12.8848 4.44329 13.1524 4.72709 13.3713V13.3591ZM4.22842 8.49402C4.14733 8.567 4.09463 8.64403 4.0703 8.72511C3.98111 8.78187 3.93651 8.81025 3.93651 8.81025C3.90407 8.84269 3.87164 8.89134 3.83921 8.9562C3.81488 8.99675 3.82299 9.02513 3.86353 9.04134C3.87164 9.04134 3.88786 9.03324 3.91218 9.01702C3.96894 8.95215 4.02165 8.85485 4.0703 8.72511C4.13517 8.67646 4.18787 8.59943 4.22842 8.49402ZM0.640398 10.1968C0.7377 9.58867 0.806623 9.17513 0.847165 8.9562C0.847165 8.93999 0.839057 8.92377 0.82284 8.90755C0.814731 8.89134 0.802569 8.89945 0.786352 8.93188C0.762026 8.97242 0.745809 9.00486 0.7377 9.02918C0.7377 9.0454 0.713375 9.15892 0.664724 9.36974C0.656615 9.41839 0.63229 9.44677 0.591747 9.45488C0.57553 9.45488 0.567422 9.43866 0.567422 9.40623C0.591747 9.11432 0.636344 8.87107 0.701212 8.67646C0.782297 8.44942 0.879599 8.21428 0.993119 7.97102C1.29313 7.37099 1.72694 6.86015 2.29454 6.43851C2.38373 6.37364 2.47292 6.34121 2.56212 6.34121C2.56212 6.35743 2.56212 6.3777 2.56212 6.40202C2.55401 6.42635 2.54995 6.44662 2.54995 6.46284C2.53374 6.47095 2.50941 6.48716 2.47698 6.51149C2.45265 6.53581 2.43238 6.55608 2.41616 6.5723C2.43238 6.55608 2.45265 6.53581 2.47698 6.51149C2.50941 6.48716 2.53374 6.47095 2.54995 6.46284C2.5905 6.45473 2.5986 6.41419 2.57428 6.34121C2.63915 6.25202 2.67564 6.20742 2.68374 6.20742C3.12971 5.88308 3.62028 5.66009 4.15544 5.53847C4.31761 5.50603 4.44735 5.46144 4.54465 5.40468C4.64195 5.35602 4.7352 5.34386 4.82439 5.36819C4.88926 5.39251 4.96629 5.38846 5.05548 5.35602C5.34739 5.25061 5.63119 5.17358 5.90688 5.12493C6.1177 5.08439 6.36501 5.05196 6.64881 5.02763C6.68935 5.02763 6.74611 5.03168 6.81909 5.03979C6.89206 5.05601 6.94477 5.06412 6.9772 5.06412C7.30965 5.0479 7.71508 5.13304 8.19348 5.31954C8.31511 5.36819 8.60296 5.53441 9.05704 5.81821C9.08136 5.83443 9.10974 5.8547 9.14217 5.87902C9.53949 6.28445 9.79491 6.58852 9.90843 6.79123C9.876 6.73447 9.96519 6.86015 10.176 7.16828C10.2084 7.23315 10.2328 7.2818 10.249 7.31423C10.403 7.83318 10.4801 8.06832 10.4801 8.01967C10.4963 8.07643 10.5287 8.1859 10.5774 8.34807C10.6179 8.48591 10.6544 8.59538 10.6868 8.67646C10.7031 8.7089 10.7071 8.74133 10.699 8.77376C10.6666 8.86296 10.6585 8.99269 10.6747 9.16297C10.6828 9.23595 10.6909 9.37379 10.699 9.57651C10.7071 9.74678 10.7233 9.88463 10.7477 9.99004C10.7558 10.0225 10.7517 10.0955 10.7355 10.209V10.5982C10.7274 11.1982 10.7112 11.5712 10.6868 11.7172C10.622 12.0577 10.549 12.3375 10.4679 12.5564C10.3057 13.0267 10.2125 13.2862 10.1882 13.3348C10.1638 13.3916 9.98951 13.7078 9.66517 14.2835C9.64896 14.3078 9.61247 14.3565 9.55571 14.4295C9.09352 14.9808 8.49755 15.5484 7.76778 16.1322C7.72724 16.1647 7.6948 16.189 7.67048 16.2052C7.24884 16.4647 6.82719 16.6512 6.40555 16.7647C5.95958 16.8863 5.42848 16.9269 4.81223 16.8863C4.77979 16.8782 4.71087 16.862 4.60546 16.8377C4.51627 16.8134 4.39464 16.7809 4.24058 16.7404C4.06219 16.6998 3.93651 16.6674 3.86353 16.6431C3.79056 16.6269 3.73785 16.5863 3.70542 16.5214C3.66487 16.4323 3.5919 16.3633 3.48649 16.3147C3.45405 16.2985 3.23918 16.1809 2.84186 15.962C2.83375 15.9539 2.55401 15.7471 2.00263 15.3417C1.92965 15.293 1.881 15.2241 1.85668 15.1349C1.79992 14.9727 1.72694 14.8349 1.63775 14.7214C1.60531 14.6889 1.5972 14.6362 1.61342 14.5632C1.64585 14.4092 1.5972 14.2876 1.46747 14.1984C1.42692 14.174 1.39854 14.1538 1.38233 14.1375C1.33368 14.0808 1.3053 14.02 1.29719 13.9551C1.28097 13.8497 1.27286 13.7767 1.27286 13.7362C1.25665 13.6227 1.22016 13.501 1.1634 13.3713C1.00934 13.0307 0.887708 12.605 0.798514 12.0942C0.757972 11.8266 0.721483 11.3888 0.689049 10.7806C0.680941 10.7563 0.684995 10.6266 0.701212 10.3914C0.701212 10.3184 0.680941 10.2536 0.640398 10.1968ZM19.8333 8.88323C19.8333 8.90755 19.8373 8.89134 19.8454 8.83458H19.8089C19.8089 8.85079 19.8089 8.86701 19.8089 8.88323H19.8333ZM13.3748 8.88323C13.3748 8.89945 13.3789 8.88323 13.387 8.83458H13.3505C13.3505 8.85079 13.3505 8.86701 13.3505 8.88323H13.3748ZM13.7519 7.38721C13.7681 7.33045 13.7762 7.29801 13.7762 7.28991C13.7843 7.27369 13.7802 7.26153 13.764 7.25342C13.7235 7.22909 13.7073 7.27369 13.7154 7.38721C13.7154 7.38721 13.7275 7.38721 13.7519 7.38721ZM21.0495 5.40468C21.1468 5.30737 21.1955 5.18575 21.1955 5.03979C21.1955 5.03979 21.1833 5.03574 21.159 5.02763C21.1428 5.06006 21.1347 5.07628 21.1347 5.07628C21.1266 5.10872 21.1022 5.21818 21.0617 5.40468C20.9887 5.47765 20.9441 5.55874 20.9279 5.64793L20.9522 5.68442C20.9684 5.6682 20.9766 5.66009 20.9766 5.66009C20.9928 5.62766 21.0171 5.54252 21.0495 5.40468ZM14.0194 6.08579C14.0276 5.98038 13.987 5.86686 13.8978 5.74523C13.8167 5.62361 13.7762 5.55063 13.7762 5.5263C13.7762 5.51009 13.7843 5.49387 13.8005 5.47765C13.8167 5.45333 13.833 5.44522 13.8492 5.45333C14.0357 5.5182 14.1005 5.54252 14.0438 5.5263C14.0843 5.53441 14.1208 5.5263 14.1532 5.50198C14.2019 5.46954 14.2465 5.429 14.287 5.38035C14.3681 5.29116 14.3965 5.20196 14.3722 5.11277C14.3559 5.05601 14.3276 4.97492 14.287 4.86951C14.2465 4.75599 14.2181 4.67086 14.2019 4.6141C14.1938 4.58977 14.1978 4.53301 14.2141 4.44382C14.2141 4.41949 14.2303 4.39922 14.2627 4.383C14.3032 4.36679 14.3316 4.36273 14.3478 4.37084C14.3965 4.41138 14.4249 4.43165 14.433 4.43165C14.4897 4.49652 14.5303 4.55328 14.5546 4.60193C14.5708 4.63437 14.5911 4.68302 14.6154 4.74789C14.6479 4.81275 14.6722 4.85735 14.6884 4.88168C14.7208 4.96276 14.7573 5.01952 14.7979 5.05196C15.0654 5.32764 15.2965 5.69253 15.4911 6.1466C15.5155 6.19526 15.5317 6.22769 15.5398 6.24391C15.5803 6.34932 15.6574 6.41013 15.7709 6.42635C15.779 6.49933 15.8074 6.5723 15.856 6.64528C15.856 6.6615 15.856 6.67771 15.856 6.69393C15.856 6.71826 15.8601 6.73447 15.8682 6.74258C15.8925 6.72636 15.8925 6.72636 15.8682 6.74258C15.8844 6.73447 15.8844 6.73447 15.8682 6.74258C15.8763 6.73447 15.8763 6.73447 15.8682 6.74258L15.8803 6.73042C15.9047 6.72231 15.9047 6.72231 15.8803 6.73042C15.8641 6.73853 15.8682 6.73853 15.8925 6.73042C15.8844 6.7142 15.8722 6.68988 15.856 6.65744C15.8479 6.53581 15.8236 6.45473 15.783 6.41419C15.783 6.32499 15.7668 6.23985 15.7344 6.15877C15.6857 6.04525 15.6128 5.80605 15.5155 5.44116C15.5074 5.40873 15.5236 5.3763 15.5641 5.34386C15.7101 5.23034 15.8358 5.21007 15.9412 5.28305C16.0628 5.36413 16.156 5.46549 16.2209 5.58712C16.3993 5.93578 16.529 6.23985 16.6101 6.49933C17.0074 7.72371 17.2588 8.50213 17.3642 8.83458C17.4129 8.96431 17.4899 9.21973 17.5953 9.60083C17.6277 9.70624 17.6358 9.79544 17.6196 9.86841C17.5872 9.96571 17.5831 10.0752 17.6075 10.1968C17.6642 10.4563 17.6967 10.5982 17.7048 10.6225C17.794 10.882 17.8669 11.1577 17.9237 11.4496C17.9318 11.4901 17.9683 11.6077 18.0332 11.8023C18.0413 11.8185 18.0534 11.8266 18.0696 11.8266C18.094 11.8266 18.1142 11.8185 18.1305 11.8023C18.171 11.7212 18.1994 11.6685 18.2156 11.6442C18.2318 11.5955 18.2683 11.482 18.3251 11.3036C18.3656 11.1658 18.4021 11.0563 18.4345 10.9752C18.4264 10.9833 18.4791 10.7766 18.5926 10.3549C18.6575 10.1198 18.7427 9.93733 18.8481 9.8076C18.8724 9.77516 18.9008 9.77516 18.9332 9.8076C18.9494 9.83192 18.9575 9.84814 18.9575 9.85625C18.844 10.3022 18.7629 10.582 18.7143 10.6955C18.6818 10.7928 18.6616 10.8495 18.6535 10.8658C18.621 11.0279 18.5643 11.2428 18.4832 11.5104C18.3859 11.8266 18.3251 12.0415 18.3007 12.155C18.2521 12.3334 18.2318 12.4672 18.2399 12.5564C18.2399 12.5807 18.248 12.5888 18.2643 12.5807C18.2886 12.5726 18.3048 12.5604 18.3129 12.5442C18.394 12.3577 18.4386 12.2483 18.4467 12.2158C18.4791 12.078 18.5318 11.8915 18.6048 11.6563C18.694 11.3969 18.7548 11.2104 18.7873 11.0969C18.8521 10.8293 18.9737 10.436 19.1521 9.91706C19.2251 9.69813 19.3467 9.35352 19.517 8.88323C19.6792 8.43726 19.8008 8.0967 19.8819 7.86156C20.1008 7.19666 20.2184 6.83988 20.2346 6.79123C20.2833 6.63717 20.3725 6.39797 20.5022 6.07363C20.5752 5.89524 20.6279 5.74929 20.6603 5.63577C20.7414 5.36819 20.9076 4.96276 21.159 4.41949C21.1671 4.40327 21.1793 4.38706 21.1955 4.37084C21.2441 4.31408 21.2725 4.2857 21.2806 4.2857C21.3293 4.27759 21.3577 4.31003 21.3658 4.383C21.3739 4.39922 21.382 4.41544 21.3901 4.43165C21.4063 4.43976 21.4185 4.43165 21.4266 4.40733C21.4509 4.30192 21.5077 4.1438 21.5969 3.93298C21.6698 3.72216 21.7185 3.56404 21.7428 3.45863C21.7671 3.37755 21.8117 3.30863 21.8766 3.25187C22.0225 3.13835 22.1199 2.98834 22.1685 2.80184C22.1685 2.81806 22.1847 2.7613 22.2172 2.63156C22.2658 2.46939 22.3793 2.33155 22.5577 2.21803C22.6064 2.1937 22.6428 2.1937 22.6672 2.21803C22.6996 2.25046 22.7158 2.27884 22.7158 2.30317C22.6753 2.7086 22.6104 3.02483 22.5212 3.25187C22.4807 3.34917 22.4077 3.57215 22.3023 3.92082C22.2861 3.98569 22.278 4.04245 22.278 4.0911C22.2861 4.17218 22.278 4.27759 22.2536 4.40733C22.2374 4.55328 22.2293 4.65464 22.2293 4.7114C22.2212 4.92222 22.1685 5.1452 22.0712 5.38035C22.0063 5.53441 21.9617 5.64793 21.9374 5.72091C21.8563 6.03714 21.7833 6.26012 21.7185 6.38986C21.7023 6.43851 21.686 6.49527 21.6698 6.56014C21.6131 6.83583 21.5401 7.07503 21.4509 7.27774C21.4185 7.41559 21.3617 7.58587 21.2806 7.78858C21.1752 8.05616 21.1103 8.22238 21.086 8.28725C21.013 8.50618 20.9725 8.63592 20.9644 8.67646C20.8833 9.05756 20.786 9.39406 20.6725 9.68597C20.6563 9.73462 20.6644 9.75895 20.6968 9.75895C20.713 9.76706 20.7292 9.75489 20.7455 9.72246C20.8103 9.62516 20.8549 9.51569 20.8792 9.39406C20.9117 9.24811 20.9684 9.05351 21.0495 8.81025C21.1468 8.51024 21.2076 8.31158 21.232 8.21428C21.2725 8.07643 21.3495 7.87372 21.4631 7.60614C21.5441 7.41964 21.6171 7.21693 21.682 6.998C21.7063 6.90881 21.759 6.7588 21.8401 6.54798C22.0023 6.12633 22.0996 5.85064 22.132 5.72091C22.1726 5.51009 22.2861 5.34792 22.4726 5.2344C22.4888 5.22629 22.5172 5.19791 22.5577 5.14926C22.5901 5.10872 22.6226 5.09655 22.655 5.11277C22.6712 5.12088 22.6793 5.13709 22.6793 5.16142C22.6712 5.42089 22.6145 5.70469 22.5091 6.01281C22.2658 6.70204 22.1563 7.01827 22.1807 6.96151C22.1644 7.01827 22.1036 7.21287 21.9982 7.54532C21.9252 7.78858 21.8725 7.98724 21.8401 8.1413C21.7752 8.48186 21.6982 8.7616 21.609 8.98053C21.5766 9.09405 21.5036 9.3373 21.3901 9.7103C21.2928 10.0103 21.2279 10.2536 21.1955 10.4401C21.1793 10.5211 21.1468 10.6266 21.0982 10.7563C21.0414 10.9104 21.009 11.0117 21.0009 11.0604C20.863 11.5469 20.8103 11.7536 20.8428 11.6807C20.786 11.8104 20.7211 12.0131 20.6482 12.2888C20.5752 12.5645 20.5103 12.7713 20.4536 12.9091C20.4373 12.9415 20.413 13.0348 20.3806 13.1888C20.3319 13.4564 20.2711 13.6835 20.1981 13.87C20.1414 14.0078 20.0846 14.2146 20.0279 14.4903C19.9468 14.9038 19.9022 15.1471 19.8941 15.22C19.8292 15.5525 19.7603 15.816 19.6873 16.0106C19.663 16.0674 19.6305 16.1971 19.59 16.3998C19.5738 16.5214 19.5373 16.7201 19.4805 16.9958C19.4319 17.2472 19.3913 17.4458 19.3589 17.5918C19.3265 17.7864 19.2819 17.9931 19.2251 18.2121C19.1927 18.3256 19.1765 18.4188 19.1765 18.4918C19.1765 18.7675 19.0589 19.0756 18.8237 19.4162C18.6535 19.6676 18.4143 19.854 18.1061 19.9757C17.9683 20.0324 17.798 20.077 17.5953 20.1095C17.5385 20.1257 17.4818 20.1297 17.425 20.1216C17.198 20.0892 17.0115 20.0284 16.8655 19.9392C16.6547 19.8257 16.5047 19.6635 16.4155 19.4527C16.3831 19.3797 16.3506 19.2783 16.3182 19.1486C16.302 19.0918 16.2898 19.0189 16.2817 18.9297C16.2412 18.6621 16.1723 18.3864 16.075 18.1026C16.0101 17.9242 15.9858 17.8026 16.002 17.7377C16.0101 17.6729 15.9817 17.5715 15.9168 17.4337C15.8763 17.3607 15.8641 17.2715 15.8803 17.1661C15.8966 17.0931 15.8803 17.0282 15.8317 16.9715C15.7668 16.8823 15.7344 16.8417 15.7344 16.8498C15.6857 16.7769 15.6695 16.7079 15.6857 16.6431C15.7425 16.3025 15.6939 16.0066 15.5398 15.7552C15.5155 15.7065 15.4911 15.6214 15.4668 15.4998C15.4182 15.3133 15.3898 15.1714 15.3817 15.0741C15.3655 14.9362 15.329 14.7497 15.2722 14.5146C15.2073 14.2632 15.1668 14.0808 15.1506 13.9673C15.1506 13.9186 15.1303 13.8497 15.0898 13.7605C15.0492 13.6713 15.0371 13.5821 15.0533 13.4929C15.0614 13.428 15.0614 13.3753 15.0533 13.3348C15.0776 13.4159 15.0249 13.1483 14.8952 12.5321C14.8627 12.3699 14.8181 12.2564 14.7614 12.1915V12.2037C14.7776 12.0415 14.7573 11.928 14.7006 11.8631C14.7006 11.8469 14.7006 11.8307 14.7006 11.8145C14.7006 11.7901 14.7006 11.7739 14.7006 11.7658L14.6641 11.778C14.6965 11.8428 14.7127 11.8712 14.7127 11.8631C14.7046 11.8955 14.6925 11.9523 14.6762 12.0334C14.66 12.1064 14.6479 12.1631 14.6397 12.2037L14.6519 12.1915C14.6195 12.1834 14.5911 12.155 14.5668 12.1064C14.5262 12.0496 14.5019 12.0131 14.4938 11.9969C14.4776 11.9888 14.4614 11.9847 14.4451 11.9847C14.4046 11.9847 14.3762 12.0091 14.36 12.0577C14.3195 12.2037 14.2992 12.2766 14.2992 12.2766C14.1613 12.6172 14.0397 13.0834 13.9343 13.6754V13.6632C13.9181 13.6875 13.91 13.6997 13.91 13.6997C13.91 13.7078 13.914 13.7362 13.9221 13.7848H13.91C13.8532 13.9875 13.8248 14.1173 13.8248 14.174C13.8248 14.1984 13.8127 14.2551 13.7884 14.3443C13.7316 14.4903 13.7073 14.543 13.7154 14.5024C13.6829 14.7051 13.6302 14.9687 13.5573 15.293C13.4681 15.7065 13.4154 15.9701 13.3991 16.0836C13.3991 16.0836 13.3951 16.0998 13.387 16.1322C13.3789 16.2133 13.4194 16.262 13.5086 16.2782C13.5492 16.2863 13.5613 16.3147 13.5451 16.3633C13.3181 16.939 13.2289 17.1782 13.2775 17.0809L13.1072 17.7012C13.0748 17.8066 13.018 17.8877 12.937 17.9445C12.8883 17.9769 12.8518 18.0215 12.8275 18.0783C12.7626 18.3215 12.7342 18.4351 12.7424 18.4188C12.6369 18.7189 12.491 18.9499 12.3045 19.1121C12.2883 19.1283 12.268 19.1527 12.2437 19.1851C12.2194 19.2175 12.1991 19.2419 12.1829 19.2581C12.1585 19.2905 12.1261 19.2986 12.0856 19.2824C11.9558 19.25 11.8666 19.2378 11.818 19.2459C11.7207 19.2621 11.6518 19.3027 11.6112 19.3675C11.522 19.5216 11.4855 19.5905 11.5018 19.5743C11.445 19.6311 11.3923 19.6392 11.3436 19.5986C11.3031 19.5581 11.2788 19.5338 11.2707 19.5257C11.2058 19.3229 11.1288 19.1486 11.0396 19.0027C11.0234 18.9783 10.9909 18.8972 10.9423 18.7594C10.926 18.7189 10.9058 18.658 10.8815 18.577C10.8571 18.504 10.8369 18.4472 10.8206 18.4067C10.8125 18.3905 10.8004 18.3783 10.7841 18.3702C10.7598 18.3702 10.7477 18.3824 10.7477 18.4067C10.7071 18.7716 10.6909 18.9216 10.699 18.8567C10.6909 18.9054 10.6625 18.9337 10.6139 18.9418C10.4841 18.9662 10.3868 19.027 10.322 19.1243C10.3057 19.1405 10.2895 19.1446 10.2733 19.1364C10.249 19.1283 10.2368 19.1162 10.2368 19.1C10.2368 18.9783 10.2287 18.9054 10.2125 18.881C10.1152 18.7107 10.0665 18.4878 10.0665 18.2121C10.0584 17.7823 10.0584 17.5391 10.0665 17.4823C10.0747 17.4661 10.0787 17.3364 10.0787 17.0931C10.0787 16.8985 10.1193 16.7323 10.2003 16.5944C10.2409 16.5133 10.2774 16.3836 10.3098 16.2052C10.3747 15.8322 10.4395 15.4552 10.5044 15.0741C10.5287 14.9606 10.5774 14.8754 10.6504 14.8187C10.7558 14.7295 10.8206 14.6078 10.845 14.4538C10.8531 14.4295 10.8815 14.2794 10.9301 14.0038V14.0159C10.995 13.951 11.0355 13.8821 11.0517 13.8091C11.1328 13.4605 11.2098 13.197 11.2828 13.0186C11.3153 12.9375 11.3558 12.8077 11.4045 12.6294C11.445 12.4591 11.4855 12.3293 11.5261 12.2402C11.5585 12.1672 11.5869 12.0739 11.6112 11.9604C11.6518 11.7415 11.7328 11.5428 11.8545 11.3644C11.9274 11.259 11.9802 11.1293 12.0126 10.9752C12.045 10.8131 12.0612 10.6995 12.0612 10.6347C12.0775 10.4563 12.1221 10.3103 12.195 10.1968C12.2112 10.1806 12.264 10.0549 12.3531 9.81976C12.4991 9.46299 12.5761 9.28055 12.5842 9.27244C12.6086 9.23189 12.641 9.21973 12.6815 9.23595C12.6978 9.23595 12.7059 9.24811 12.7059 9.27244C12.714 9.32109 12.714 9.35758 12.7059 9.3819C12.6978 9.41434 12.6815 9.4711 12.6572 9.55218C12.641 9.62516 12.6248 9.68192 12.6086 9.72246C12.4788 10.3468 12.3815 10.8171 12.3167 11.1333C12.2923 11.255 12.264 11.3644 12.2315 11.4617C12.1342 11.7699 12.0653 12.0537 12.0248 12.3131L12.0004 12.3375L12.0248 12.3131C12.0896 12.2158 12.1221 12.1631 12.1221 12.155C12.195 11.9685 12.264 11.7658 12.3288 11.5469C12.3531 11.4739 12.3815 11.3644 12.414 11.2185C12.4302 11.1536 12.4464 11.0685 12.4626 10.9631C12.4869 10.8414 12.5072 10.7563 12.5234 10.7076C12.564 10.513 12.5883 10.4036 12.5964 10.3792C12.6613 10.2171 12.7342 9.97382 12.8153 9.64948C12.8964 9.32514 12.9694 9.08594 13.0343 8.93188C13.0505 8.89134 13.0626 8.85079 13.0707 8.81025C13.1032 8.64808 13.1599 8.4251 13.241 8.1413C13.3302 7.80885 13.387 7.58587 13.4113 7.47235C13.4843 7.18044 13.5573 6.96151 13.6302 6.81556C13.7438 6.58852 13.8005 6.36553 13.8005 6.1466C13.8005 6.07363 13.8411 6.04119 13.9221 6.0493C13.9303 6.0493 13.9667 6.06147 14.0316 6.08579L14.0438 6.09795L14.0194 6.08579ZM23.8226 6.15877C23.7983 6.18309 23.7861 6.19526 23.7861 6.19526C23.7861 6.19526 23.7902 6.21147 23.7983 6.24391C23.8226 6.21958 23.8348 6.20742 23.8348 6.20742C23.8348 6.19931 23.8307 6.18309 23.8226 6.15877ZM24.1024 16.4485C24.0699 16.7323 24.001 16.9958 23.8956 17.2391C23.8632 17.312 23.7659 17.5715 23.6037 18.0175C23.5713 18.1229 23.5267 18.208 23.4699 18.2729C23.3888 18.3783 23.328 18.504 23.2875 18.6499C23.2956 18.6175 23.2915 18.6378 23.2753 18.7107C23.2023 19.0189 23.0361 19.3067 22.7766 19.5743C22.7199 19.6392 22.651 19.6676 22.5699 19.6594H22.5091C22.4118 19.6594 22.3509 19.7 22.3266 19.7811C22.3185 19.7811 22.2293 19.9595 22.059 20.3162L21.9861 20.4135C21.9617 20.4298 21.9334 20.4419 21.9009 20.45C21.8604 20.45 21.8361 20.4419 21.8279 20.4257C21.8198 20.4095 21.8077 20.377 21.7915 20.3284C21.7671 20.2879 21.7509 20.2595 21.7428 20.2433C21.7104 20.1784 21.6698 20.146 21.6212 20.146C21.5077 20.1541 21.4306 20.0973 21.3901 19.9757C21.3495 19.8378 21.3293 19.6757 21.3293 19.4892C21.3212 19.3432 21.3009 19.181 21.2685 19.0027C21.236 18.8567 21.1833 18.7472 21.1103 18.6743C21.0698 18.6418 21.0333 18.6053 21.0009 18.5648C20.9522 18.508 20.9279 18.4432 20.9279 18.3702C20.9279 17.981 20.9522 17.6445 21.0009 17.3607C21.1712 16.3066 21.3131 15.4795 21.4266 14.8795C21.4752 14.62 21.532 14.393 21.5969 14.1984C21.6374 14.0848 21.682 13.9146 21.7306 13.6875C21.8036 13.3794 21.8725 13.1361 21.9374 12.9578C21.978 12.8442 22.0225 12.678 22.0712 12.4591C22.1604 12.0131 22.2455 11.6928 22.3266 11.4982C22.3591 11.3847 22.432 11.1333 22.5455 10.7441C22.6428 10.4279 22.7118 10.1765 22.7523 9.99004C22.7685 9.90085 22.7969 9.78733 22.8375 9.64948C22.8861 9.4711 22.9145 9.35758 22.9226 9.30893C22.9469 9.23595 22.9591 9.16297 22.9591 9.09C22.9672 8.99269 22.9875 8.91566 23.0199 8.8589C23.0929 8.73727 23.1861 8.46159 23.2996 8.03183C23.4294 7.54532 23.5145 7.24531 23.5551 7.13179C23.6443 6.89664 23.6767 6.67366 23.6524 6.46284C23.6361 6.30067 23.6645 6.13039 23.7375 5.952C23.7537 5.91957 23.778 5.85875 23.8105 5.76956C23.8429 5.68037 23.8672 5.6155 23.8835 5.57495C23.9078 5.5263 23.9564 5.41684 24.0294 5.24656C24.0943 5.10872 24.1429 4.99925 24.1754 4.91817C24.1997 4.84519 24.2321 4.73978 24.2727 4.60193C24.3132 4.4722 24.3497 4.37084 24.3821 4.29786C24.4632 4.08704 24.5362 3.9492 24.6011 3.88433C24.6659 3.81946 24.7146 3.73027 24.747 3.61675C24.747 3.60053 24.82 3.39782 24.9659 3.00861C25.047 2.79779 25.193 2.63562 25.4038 2.5221C25.4768 2.48156 25.5133 2.46129 25.5133 2.46129C25.5781 2.41263 25.6187 2.34777 25.6349 2.26668C25.643 2.22614 25.6511 2.18965 25.6592 2.15722C25.6673 2.12478 25.6957 2.10451 25.7444 2.0964C25.793 2.08019 25.8295 2.08424 25.8538 2.10857C26.0565 2.30317 26.1903 2.5221 26.2552 2.76535C26.2633 2.81401 26.2876 2.83833 26.3282 2.83833C26.3525 2.83022 26.3728 2.80184 26.389 2.75319C26.4052 2.72076 26.4255 2.68427 26.4498 2.64373C26.4822 2.58697 26.5309 2.56264 26.5957 2.57075C26.6768 2.57075 26.7336 2.60318 26.766 2.66805C26.8228 2.76535 26.8471 2.87077 26.839 2.98428C26.7985 3.36538 26.7579 3.62891 26.7174 3.77486C26.7093 3.81541 26.6931 3.90866 26.6687 4.05461C26.6606 4.10326 26.6809 4.12353 26.7295 4.11542C26.7458 4.11542 26.7579 4.10326 26.766 4.07893C26.766 3.91676 26.8512 3.79108 27.0214 3.70189C27.0377 3.69378 27.0539 3.68973 27.0701 3.68973C27.0944 3.68973 27.1106 3.69378 27.1187 3.70189C27.1269 3.74243 27.1552 3.82757 27.2039 3.95731C27.2606 4.11948 27.2769 4.29786 27.2525 4.49247C27.2444 4.54923 27.2363 4.64248 27.2282 4.77221C27.212 4.89384 27.1998 4.99114 27.1917 5.06412C27.1836 5.13709 27.1715 5.21007 27.1552 5.28305C27.1633 5.25061 27.066 5.70469 26.8633 6.64528C26.839 6.71826 26.7944 6.82772 26.7295 6.97367C26.6079 7.21693 26.5187 7.45613 26.462 7.69128C26.4376 7.8129 26.4133 7.90615 26.389 7.97102C26.3079 8.15752 26.2228 8.43726 26.1336 8.81025C26.1011 8.93999 26.0484 9.04945 25.9754 9.13865C25.8863 9.24406 25.8457 9.36974 25.8538 9.51569C25.8619 9.57245 25.8538 9.62516 25.8295 9.67381C25.7808 9.77111 25.7322 9.91301 25.6835 10.0995C25.6349 10.286 25.5862 10.4238 25.5376 10.513C25.5214 10.5455 25.5092 10.582 25.5011 10.6225C25.4687 10.7847 25.4038 11.0279 25.3065 11.3523C25.2173 11.6766 25.1524 11.9239 25.1119 12.0942C25.0713 12.3293 25.0227 12.5158 24.9659 12.6537C24.9254 12.751 24.8727 12.9375 24.8078 13.2132C24.6943 13.6997 24.6254 13.9997 24.6011 14.1132C24.5686 14.2673 24.5402 14.3808 24.5159 14.4538C24.4916 14.5186 24.4592 14.6281 24.4186 14.7822C24.3943 14.8876 24.3619 15.0579 24.3213 15.293C24.2808 15.5038 24.2281 15.6903 24.1632 15.8525C24.1308 15.9417 24.0983 16.0552 24.0659 16.1931C24.0416 16.2822 24.0537 16.3714 24.1024 16.4606V16.4485ZM34.757 7.32639L34.7691 7.28991L34.7326 7.30207L34.757 7.32639ZM36.7273 8.79809C36.7354 8.76565 36.7395 8.74944 36.7395 8.74944C36.7152 8.717 36.6949 8.72917 36.6787 8.78593C36.6787 8.78593 36.6827 8.79809 36.6908 8.82241C36.699 8.81431 36.7111 8.8062 36.7273 8.79809ZM36.8368 8.28725C36.8611 8.23049 36.8571 8.19806 36.8246 8.18995C36.8003 8.18995 36.7841 8.21833 36.776 8.27509C36.7679 8.33185 36.78 8.35212 36.8125 8.3359C36.8125 8.32779 36.8206 8.31158 36.8368 8.28725ZM32.2149 13.3591C32.2474 13.3348 32.292 13.2983 32.3487 13.2497C32.4298 13.1767 32.4825 13.0997 32.5069 13.0186C32.5636 12.9942 32.6082 12.9578 32.6406 12.9091C32.8353 12.7956 32.9731 12.6456 33.0542 12.4591C33.1434 12.4104 33.2204 12.3415 33.2853 12.2523C33.5853 11.8307 33.7394 11.6158 33.7475 11.6077C33.8934 11.4212 34.165 11.0401 34.5624 10.4644C34.8056 10.1238 35.0002 9.79138 35.1462 9.46704C35.2435 9.25622 35.3124 9.11432 35.3529 9.04134C35.434 8.87917 35.503 8.75349 35.5597 8.6643C35.6246 8.567 35.7057 8.53456 35.803 8.567C35.8354 8.5751 35.8638 8.55078 35.8881 8.49402C35.9449 8.33185 35.9043 8.20617 35.7665 8.11697C35.5962 8.01967 35.4867 7.93859 35.4381 7.87372C35.3651 7.77642 35.2354 7.69128 35.0489 7.6183C34.9759 7.58587 34.8583 7.54127 34.6962 7.48451C34.5502 7.42775 34.4326 7.38315 34.3434 7.35072C34.3029 7.3345 34.3069 7.30612 34.3556 7.26558C34.4042 7.22504 34.4245 7.1926 34.4164 7.16828C34.4083 7.13584 34.388 7.11152 34.3556 7.0953C34.0475 6.98178 33.7637 6.91691 33.5042 6.9007C33.3988 6.9007 33.2731 6.88043 33.1272 6.83988C32.965 6.79934 32.815 6.79934 32.6771 6.83988C32.5636 6.87232 32.4501 6.88448 32.3366 6.87637C32.3366 6.87637 32.2636 6.88853 32.1176 6.91286C32.0041 6.92908 31.9271 6.93718 31.8866 6.93718C31.8703 6.93718 31.8582 6.92908 31.8501 6.91286C31.8338 6.88043 31.842 6.84799 31.8744 6.81556C31.8987 6.79934 31.9149 6.78718 31.923 6.77907C32.1258 6.68177 32.3325 6.60474 32.5433 6.54798C32.8758 6.46689 33.2001 6.42635 33.5164 6.42635H33.8569C33.8731 6.42635 33.8894 6.42229 33.9056 6.41419C33.9461 6.38986 33.934 6.3777 33.8691 6.3777C33.8772 6.3777 33.6704 6.36959 33.2488 6.35337C32.7298 6.32905 32.0893 6.48716 31.3271 6.82772C31.3027 6.83583 31.2663 6.8561 31.2176 6.88853C31.0554 7.00205 30.9703 7.13179 30.9622 7.27774C30.9541 7.31018 30.946 7.37504 30.9379 7.47235C30.9298 7.55343 30.9257 7.6183 30.9257 7.66695C30.9176 7.94264 30.8649 8.1859 30.7676 8.39672C30.7189 8.51024 30.6824 8.63997 30.6581 8.78593C30.4959 9.72651 30.4027 10.3671 30.3784 10.7076C30.3784 10.7968 30.3662 10.8739 30.3419 10.9387C30.35 10.9144 30.2811 11.1779 30.1351 11.7293C30.0784 11.9482 30.0419 12.078 30.0257 12.1185C29.9689 12.2645 29.9121 12.4712 29.8554 12.7388C29.7905 13.0388 29.7419 13.2253 29.7094 13.2983C29.6608 13.4199 29.604 13.5983 29.5391 13.8335C29.4743 14.0767 29.4216 14.2551 29.381 14.3686C29.3648 14.4092 29.3364 14.5389 29.2959 14.7578C29.2878 14.7741 29.2878 14.8106 29.2959 14.8673L29.308 14.916C29.3324 14.9808 29.381 14.993 29.454 14.9525C29.5594 14.8876 29.6973 14.7619 29.8675 14.5754C29.9892 14.4457 30.1148 14.3443 30.2446 14.2713V14.32C30.2608 14.4254 30.3135 14.4376 30.4027 14.3565C30.4027 14.3565 30.427 14.3281 30.4757 14.2713C30.5405 14.2146 30.5892 14.1375 30.6216 14.0402C30.6865 13.9835 30.7311 13.947 30.7554 13.9308C30.8852 13.9065 30.9906 13.8497 31.0716 13.7605C31.1771 13.647 31.3392 13.4929 31.5582 13.2983C31.923 12.9821 32.2149 12.6902 32.4339 12.4226C32.5474 12.2847 32.669 12.1793 32.7988 12.1064C32.9123 12.0415 33.0136 11.9401 33.1028 11.8023C33.3461 11.4293 33.5366 11.1942 33.6745 11.0969C33.8691 10.8374 33.9786 10.6914 34.0029 10.659C34.0434 10.6184 34.088 10.5739 34.1367 10.5252C34.1772 10.5009 34.2096 10.5009 34.234 10.5252C34.2664 10.5495 34.2705 10.582 34.2461 10.6225C34.1975 10.7117 34.1529 10.7806 34.1123 10.8293C34.1367 10.8049 33.8975 11.1577 33.3947 11.8874C33.2164 12.155 33.1028 12.3456 33.0542 12.4591C32.8515 12.5726 32.7136 12.7226 32.6406 12.9091C32.592 12.9334 32.5474 12.974 32.5069 13.0307C32.442 13.0713 32.3893 13.1443 32.3487 13.2497C32.3244 13.274 32.2798 13.3145 32.2149 13.3713L32.1906 13.3835L32.2149 13.3591ZM31.7771 17.9202C31.7203 17.985 31.6392 18.0458 31.5338 18.1026C31.2906 18.2323 31.0554 18.3378 30.8284 18.4188C29.9689 18.7432 29.5756 18.8932 29.6486 18.8689C29.4783 18.9337 29.3283 18.9824 29.1986 19.0148C28.9634 19.0716 28.781 19.1364 28.6513 19.2094C28.635 19.2094 28.5986 19.2094 28.5418 19.2094L28.4931 19.1851C28.3715 19.1202 28.2539 19.1405 28.1404 19.2459C28.0026 19.3838 27.9296 19.4567 27.9215 19.4648C27.9134 19.4729 27.8485 19.5175 27.7269 19.5986L27.7026 19.5743L27.7269 19.5865C27.6782 19.6919 27.6093 19.7284 27.5201 19.6959C27.512 19.6959 27.5039 19.6959 27.4958 19.6959C27.4796 19.6878 27.4715 19.6838 27.4715 19.6838C27.3498 19.6513 27.2444 19.6919 27.1552 19.8054C27.139 19.8216 27.1187 19.8459 27.0944 19.8784C27.0701 19.9108 27.0539 19.9351 27.0458 19.9513C27.0214 19.9838 26.985 20 26.9363 20C26.8958 20 26.8674 19.9878 26.8512 19.9635C26.8025 19.8824 26.7741 19.8378 26.766 19.8297C26.7174 19.6919 26.6606 19.5865 26.5957 19.5135C26.5552 19.4648 26.5147 19.4324 26.4741 19.4162C26.3363 19.3838 26.1863 19.3878 26.0241 19.4283C26.0484 19.4202 26.016 19.4365 25.9268 19.477C25.8538 19.5094 25.8133 19.4973 25.8052 19.4405C25.7808 19.3594 25.7606 19.3148 25.7444 19.3067C25.6227 19.2419 25.566 19.1446 25.5741 19.0148C25.5741 18.9986 25.5579 18.9864 25.5254 18.9783C25.4849 18.9783 25.4119 18.9905 25.3065 19.0148C25.2092 19.0391 25.1322 19.0432 25.0754 19.027C25.0592 19.027 25.047 19.0189 25.0389 19.0027C25.0146 18.9783 25.0186 18.9459 25.0511 18.9054C25.0186 18.9378 25.0349 18.9256 25.0997 18.8689C25.2295 18.7391 25.2538 18.6094 25.1727 18.4797C25.1403 18.431 25.0957 18.4026 25.0389 18.3945C24.9984 18.3864 24.9254 18.3783 24.82 18.3702C24.7308 18.354 24.6578 18.3418 24.6011 18.3337C24.4956 18.3175 24.4186 18.281 24.37 18.2242C24.3456 18.1837 24.3537 18.1513 24.3943 18.1269C24.4997 18.054 24.6092 18.0175 24.7227 18.0175C24.6821 18.0175 24.7551 18.0296 24.9416 18.054C25.12 18.0702 25.2903 18.0458 25.4524 17.981C25.5579 17.9404 25.6227 17.8715 25.6471 17.7742C25.6633 17.7012 25.6795 17.6039 25.6957 17.4823C25.7119 17.385 25.6957 17.2999 25.6471 17.2269C25.6389 17.2269 25.6106 17.1863 25.5619 17.1053H25.5498C25.6714 17.0809 25.7484 17.0607 25.7808 17.0444C25.8214 17.0201 25.8498 16.9917 25.866 16.9593C25.8903 16.9107 25.9065 16.8539 25.9146 16.789C25.9471 16.6106 26.0079 16.2904 26.0971 15.8282C26.1214 15.6984 26.1863 15.6052 26.2917 15.5484C26.3484 15.5241 26.3849 15.4754 26.4011 15.4025C26.4741 15.0862 26.5066 14.9362 26.4984 14.9525C26.5552 14.8227 26.6241 14.5835 26.7052 14.2348C26.7376 14.1051 26.7863 13.9551 26.8512 13.7848C26.916 13.6227 26.9687 13.4524 27.0093 13.274C27.0742 12.9821 27.1715 12.7267 27.3012 12.5077C27.3823 12.3618 27.439 12.1956 27.4715 12.0091C27.5201 11.7496 27.5363 11.6563 27.5201 11.7293C27.5444 11.6482 27.5688 11.5712 27.5931 11.4982C27.8201 10.9631 27.9742 10.4603 28.0553 9.99004C28.0877 9.82787 28.1364 9.66165 28.2012 9.49137C28.2985 9.23189 28.335 8.98864 28.3107 8.7616C28.2945 8.63186 28.3188 8.48186 28.3837 8.31158C28.5134 8.01156 28.5702 7.88588 28.554 7.93453C28.635 7.74804 28.6877 7.59803 28.7121 7.48451C28.7445 7.33856 28.8134 7.19666 28.9188 7.05881C28.9351 7.03449 28.9715 6.96556 29.0283 6.85205C29.0364 6.82772 29.0445 6.79123 29.0526 6.74258C29.1094 6.49933 29.2837 6.2358 29.5756 5.952C29.6 5.92767 29.6324 5.90335 29.6729 5.87902C29.9081 5.74118 30.0621 5.56279 30.1351 5.34386C30.1594 5.27899 30.2081 5.21413 30.2811 5.14926C30.6784 4.78437 30.9784 4.53706 31.1811 4.40733C31.5946 4.13164 32.0568 3.94109 32.5677 3.83568C33.192 3.71405 33.7637 3.63702 34.2826 3.60459C34.3799 3.59648 34.4367 3.59242 34.4529 3.59242C34.8097 3.52755 35.13 3.5235 35.4138 3.58026C35.4624 3.58837 35.5192 3.59242 35.584 3.59242C35.73 3.58431 36.0908 3.63702 36.6665 3.75054C36.7395 3.75865 36.7922 3.77486 36.8246 3.79919C36.8895 3.83973 36.9828 3.88838 37.1044 3.94514C37.2584 4.01001 37.3517 4.05461 37.3841 4.07893C37.822 4.30597 38.1788 4.65058 38.4545 5.11277C38.5436 5.24251 38.6855 5.54252 38.8801 6.01281C38.8964 6.05336 38.9126 6.10201 38.9288 6.15877C39.0666 6.8561 39.0788 7.521 38.9653 8.15346C38.9329 8.30752 38.9085 8.45753 38.8923 8.60348C38.8842 8.69268 38.868 8.78593 38.8437 8.88323C38.8031 9.00486 38.7707 9.11837 38.7464 9.22379C38.6734 9.53191 38.5315 9.91706 38.3207 10.3792C38.1666 10.7279 37.9842 11.0847 37.7733 11.4496C37.5544 11.8307 37.376 12.1266 37.2382 12.3375C37.1976 12.3942 37.1328 12.5077 37.0436 12.678C36.9544 12.824 36.8814 12.9334 36.8246 13.0064L36.7882 13.0429C36.8125 13.0267 36.7354 13.1443 36.5571 13.3956L36.3868 13.651C36.2895 13.7564 36.2084 13.874 36.1435 14.0038C36.0705 14.1578 35.9611 14.2713 35.8151 14.3443C35.6935 14.4011 35.6003 14.4781 35.5354 14.5754C35.357 14.843 35.1705 15.0579 34.9759 15.22C34.7732 15.4552 34.384 15.816 33.8083 16.3025C33.5488 16.5296 33.188 16.7931 32.7258 17.0931C32.5717 17.1985 32.4379 17.2958 32.3244 17.385C32.3163 17.385 32.2595 17.4418 32.1541 17.5553H32.1663C32.069 17.5715 31.9839 17.608 31.9109 17.6647L31.7771 17.7864C31.7447 17.7945 31.7284 17.7985 31.7284 17.7985C31.696 17.8066 31.6798 17.8148 31.6798 17.8229C31.6717 17.8634 31.692 17.8796 31.7406 17.8715C31.7487 17.8877 31.7609 17.9039 31.7771 17.9202ZM44.171 13.0186C44.0007 13.0186 43.9074 13.0186 43.8912 13.0186C43.8669 13.0267 43.8547 13.0348 43.8547 13.0429C43.8547 13.0591 43.8709 13.0672 43.9034 13.0672C43.9277 13.0753 43.9439 13.0794 43.952 13.0794C44.1872 13.0794 44.3574 13.0794 44.4629 13.0794C44.4629 13.0794 44.475 13.0672 44.4993 13.0429L44.4507 13.0186C44.4264 13.0186 44.3372 13.0145 44.1831 13.0064L44.171 13.0186ZM44.998 13.6389C44.9494 13.5902 44.8602 13.5781 44.7304 13.6024C44.6818 13.6186 44.6615 13.647 44.6696 13.6875C44.6696 13.7118 44.6777 13.7281 44.6939 13.7362C44.775 13.7767 44.8642 13.7727 44.9615 13.724C44.9615 13.724 44.9737 13.7118 44.998 13.6875V13.6389ZM47.09 18.6499C47.1873 18.658 47.24 18.6621 47.2481 18.6621C47.3049 18.6621 47.3373 18.6905 47.3454 18.7472C47.3454 18.7797 47.3535 18.8648 47.3698 19.0027V18.9905C47.2887 19.0716 47.2481 19.1162 47.2481 19.1243C47.1265 19.254 46.9724 19.3554 46.7859 19.4283C46.494 19.5338 46.2508 19.6189 46.0562 19.6838C45.8778 19.7405 45.7278 19.7527 45.6062 19.7203C45.5332 19.704 45.4399 19.704 45.3264 19.7203C44.9777 19.777 44.5804 19.8013 44.1345 19.7932C44.1182 19.7932 44.0777 19.8013 44.0128 19.8176C43.948 19.8338 43.8993 19.8297 43.8669 19.8054C43.7453 19.7081 43.7047 19.6716 43.7453 19.6959C43.6723 19.6473 43.5871 19.6189 43.4898 19.6108C43.3925 19.6027 43.2831 19.5946 43.1614 19.5865C42.7966 19.5784 42.5209 19.55 42.3344 19.5013C42.2127 19.477 42.0262 19.4689 41.7749 19.477C41.7992 19.477 41.6289 19.4892 41.264 19.5135C41.1586 19.5135 41.1019 19.5135 41.0938 19.5135C40.9154 19.4729 40.6843 19.4567 40.4005 19.4648C40.0032 19.4648 39.768 19.4608 39.6951 19.4527C39.6464 19.4527 39.6099 19.4932 39.5856 19.5743C39.5369 19.704 39.4599 19.7527 39.3545 19.7203C39.2896 19.6959 39.2531 19.6838 39.245 19.6838C39.2288 19.6757 39.2004 19.6594 39.1599 19.6351C39.1193 19.6108 39.091 19.5905 39.0747 19.5743C38.8801 19.477 38.6653 19.4446 38.4301 19.477C38.3409 19.4932 38.2882 19.4567 38.272 19.3675C38.2639 19.3027 38.2355 19.2662 38.1869 19.2581C38.1463 19.25 38.0977 19.2459 38.0409 19.2459C37.976 19.2378 37.9314 19.2337 37.9071 19.2337C37.8423 19.2256 37.7896 19.2135 37.749 19.1973C37.6679 19.181 37.6112 19.1446 37.5787 19.0878C37.5058 18.9499 37.4733 18.8891 37.4814 18.9054C37.3841 18.8162 37.3679 18.7189 37.4328 18.6134C37.4409 18.5972 37.449 18.5607 37.4571 18.504C37.4571 18.4391 37.4409 18.3905 37.4085 18.358C37.3922 18.3418 37.372 18.3256 37.3476 18.3094C37.3152 18.285 37.2949 18.2688 37.2868 18.2607C37.2138 18.1959 37.226 18.131 37.3233 18.0661C37.3882 18.0094 37.4206 17.985 37.4206 17.9931C37.453 17.9688 37.6517 17.8229 38.0166 17.5553C38.1139 17.4823 38.1179 17.4174 38.0288 17.3607C37.972 17.3201 37.9517 17.2593 37.9679 17.1782C38.0004 16.9999 38.0369 16.8985 38.0774 16.8742C38.2396 16.6147 38.3369 16.3593 38.3693 16.1079C38.3774 16.043 38.4423 15.6863 38.5639 15.0376C38.5639 15.0376 38.568 15.0173 38.5761 14.9768C38.6085 14.8389 38.6815 14.7497 38.795 14.7092C38.8842 14.6849 38.9369 14.6281 38.9531 14.5389C39.0423 14.1173 39.0869 13.9105 39.0869 13.9186C39.1193 13.797 39.245 13.3875 39.464 12.6902C39.545 12.4064 39.5815 12.2929 39.5734 12.3496C39.6059 12.2199 39.614 12.0901 39.5977 11.9604C39.5734 11.782 39.5572 11.5996 39.5491 11.4131C39.5329 11.1942 39.5572 11.0077 39.6221 10.8536C39.6464 10.7887 39.6586 10.732 39.6586 10.6833C39.6829 10.5374 39.7802 10.2211 39.9505 9.73462C39.9586 9.7103 39.9667 9.69003 39.9748 9.67381C39.991 9.64948 40.0032 9.63732 40.0113 9.63732C40.0437 9.64543 40.0599 9.67381 40.0599 9.72246C40.0518 9.77922 40.0518 9.79544 40.0599 9.77111C40.0437 9.81976 40.0518 9.84814 40.0843 9.85625C40.1005 9.86436 40.1126 9.85625 40.1207 9.83192C40.1694 9.60489 40.2545 9.36568 40.3762 9.11432C40.4573 8.95215 40.5181 8.82241 40.5586 8.72511C40.6235 8.56294 40.7086 8.40483 40.814 8.25076C40.9275 8.07238 40.96 7.86966 40.9113 7.64263C40.8789 7.51289 40.81 7.41964 40.7046 7.36288C40.6965 7.35477 40.6802 7.34666 40.6559 7.33856C40.6397 7.33045 40.6235 7.32234 40.6073 7.31423C40.5424 7.2818 40.514 7.22504 40.5221 7.14395C40.5383 6.87637 40.6316 6.64122 40.8019 6.43851C40.9235 6.28445 41.0005 6.16688 41.033 6.08579L41.0573 6.07363L41.0451 6.08579C40.8343 6.1912 40.7127 6.24796 40.6802 6.25607C40.5992 6.29661 40.5343 6.2885 40.4856 6.23174C40.4775 6.23174 40.437 6.18309 40.364 6.08579C40.4775 5.8101 40.6924 5.58306 41.0086 5.40468C41.0735 5.36413 41.11 5.34386 41.1181 5.34386C41.2965 5.23034 41.4059 5.07223 41.4465 4.86951C41.4465 4.86141 41.4668 4.78843 41.5073 4.65058C41.556 4.61004 41.6289 4.45598 41.7262 4.1884C41.7587 4.10731 41.8073 4.04245 41.8722 3.99379C41.8884 3.98569 41.9695 3.92893 42.1154 3.82352C42.2938 3.81541 42.3911 3.8073 42.4073 3.79919C42.4965 3.79919 42.5898 3.73838 42.6871 3.61675C42.7601 3.53566 42.829 3.5235 42.8939 3.58026C43.2993 3.96136 43.4979 4.15191 43.4898 4.15191C43.5385 4.20056 43.579 4.17624 43.6115 4.07893C43.6358 4.00596 43.6682 3.95731 43.7088 3.93298C43.7331 3.92487 43.7696 3.90866 43.8182 3.88433C43.875 3.86811 43.9115 3.8519 43.9277 3.83568C43.9763 3.81946 44.0128 3.82757 44.0372 3.86C44.102 3.94109 44.1345 3.98163 44.1345 3.98163C44.248 4.11137 44.321 4.26543 44.3534 4.44382C44.3615 4.46003 44.3696 4.48841 44.3777 4.52896C44.3858 4.56139 44.3899 4.58572 44.3899 4.60193C44.4142 4.71545 44.4791 4.79248 44.5845 4.83303C44.625 4.84924 44.6453 4.89384 44.6453 4.96682C44.6453 5.00736 44.6656 5.03168 44.7061 5.03979C45.2656 5.0479 45.6589 5.05196 45.8859 5.05196C46.1535 5.05196 46.3562 5.07628 46.494 5.12493C46.6157 5.17358 46.7616 5.17358 46.9319 5.12493C47.0779 5.08439 47.2116 5.08034 47.3333 5.11277C47.4062 5.12899 47.4792 5.12899 47.5522 5.11277C47.609 5.10466 47.9333 5.07628 48.5252 5.02763C48.5901 5.02763 48.6428 5.00736 48.6833 4.96682C48.7077 4.9506 48.732 4.90195 48.7563 4.82086C48.7644 4.77221 48.7928 4.74789 48.8415 4.74789C48.9144 4.73978 48.9671 4.74383 48.9996 4.76005C49.1455 4.80059 49.2915 4.81681 49.4374 4.8087C49.4942 4.8087 49.5307 4.81275 49.5469 4.82086C49.5955 4.86141 49.6685 4.88979 49.7658 4.906C49.8956 4.93844 49.9726 4.95871 49.9969 4.96682C50.0942 5.00736 50.1631 5.08439 50.2037 5.19791C50.2118 5.24656 50.2199 5.31954 50.228 5.41684C50.2361 5.49792 50.2726 5.55063 50.3375 5.57495C50.3618 5.58306 50.378 5.59117 50.3861 5.59928C50.4996 5.68037 50.5118 5.77767 50.4226 5.89119C50.1307 6.27229 49.9442 6.51149 49.8631 6.60879C49.855 6.6169 49.8185 6.6696 49.7537 6.76691H50.0334C50.1307 6.76691 50.1469 6.8115 50.0821 6.9007C50.0658 6.92502 50.0577 6.9534 50.0577 6.98584C50.0577 7.02638 50.0537 7.0507 50.0456 7.05881C50.0456 7.07503 50.0091 7.12368 49.9361 7.20477C49.8956 7.26153 49.8712 7.29396 49.8631 7.30207C49.8226 7.35072 49.7334 7.45208 49.5955 7.60614C49.482 7.72776 49.3928 7.82507 49.328 7.89804C49.2307 8.01156 49.1171 8.10076 48.9874 8.16562C48.9874 8.16562 48.8415 8.2386 48.5495 8.38455C48.3306 8.48997 48.1441 8.53051 47.9901 8.50618C47.9576 8.50618 47.9211 8.51024 47.8806 8.51834C47.5968 8.59132 47.1995 8.60754 46.6886 8.567C46.6319 8.55889 46.6076 8.51834 46.6157 8.44537C46.6157 8.42104 46.6116 8.40483 46.6035 8.39672C46.5305 8.3805 46.4332 8.35617 46.3116 8.32374C46.1738 8.29942 46.0765 8.27914 46.0197 8.26293C45.7035 8.18184 45.4967 8.11697 45.3994 8.06832C45.3345 8.03589 45.2453 8.01562 45.1318 8.00751C45.0507 8.00751 44.9656 7.98724 44.8764 7.94669C44.6494 7.83318 44.398 7.79669 44.1223 7.83723C44.1466 7.82912 44.0736 7.82912 43.9034 7.83723C43.8142 7.83723 43.7493 7.88183 43.7088 7.97102C43.6196 8.19806 43.575 8.30752 43.575 8.29942C43.4939 8.44537 43.4371 8.61159 43.4047 8.79809C43.3966 8.87917 43.3804 8.93593 43.356 8.96837C43.3074 9.05756 43.2547 9.1873 43.1979 9.35758C43.1412 9.53596 43.0925 9.6657 43.052 9.74678C43.0114 9.81976 42.9344 10.0022 42.8209 10.2941C42.7884 10.3914 42.7682 10.5049 42.7601 10.6347C42.752 10.7158 42.7925 10.7644 42.8817 10.7806C43.0277 10.8049 43.1168 10.8171 43.1493 10.8171C43.5547 10.8333 43.8912 10.8414 44.1588 10.8414C44.402 10.8495 44.5885 10.8658 44.7183 10.8901C44.8399 10.9225 45.0061 10.9347 45.2169 10.9266C45.3548 10.9185 45.4683 10.8901 45.5575 10.8414C45.6386 10.809 45.7359 10.7887 45.8494 10.7806C46.1008 10.7644 46.4251 10.7401 46.8224 10.7076C46.8711 10.6995 46.9076 10.6549 46.9319 10.5739C46.94 10.5333 46.9684 10.509 47.017 10.5009C47.1873 10.4766 47.3738 10.4847 47.5765 10.5252C47.6982 10.5495 47.7509 10.5617 47.7346 10.5617C47.9617 10.5374 48.1239 10.6468 48.2212 10.8901C48.2212 10.882 48.2374 10.9104 48.2698 10.9752C48.3103 11.0482 48.3793 11.1009 48.4766 11.1333C48.5658 11.1577 48.6063 11.2266 48.5982 11.3401C48.582 11.5671 48.5212 11.7739 48.4158 11.9604C48.3266 12.1064 48.2779 12.1915 48.2698 12.2158C48.2617 12.2402 48.2657 12.2564 48.282 12.2645C48.2901 12.2807 48.3063 12.2807 48.3306 12.2645C48.4847 12.151 48.6104 12.0942 48.7077 12.0942L48.6955 12.082C48.7036 12.1793 48.7401 12.232 48.805 12.2402C48.8861 12.2645 48.9104 12.2969 48.8779 12.3375C48.7482 12.5402 48.6793 12.6415 48.6712 12.6415C48.5658 12.8118 48.4198 12.9496 48.2333 13.0551C47.9576 13.2253 47.8522 13.2902 47.9171 13.2497C47.7711 13.3307 47.6941 13.4402 47.686 13.5781C47.686 13.6186 47.6657 13.6713 47.6252 13.7362C47.5684 13.8416 47.4873 13.8902 47.3819 13.8821C47.3657 13.8821 47.3292 13.8781 47.2725 13.87C47.167 13.8619 47.09 13.9105 47.0414 14.0159C47.0089 14.0727 46.9765 14.0929 46.9441 14.0767C46.7657 14.02 46.5021 14.0281 46.1535 14.1011C46.0481 14.1254 45.971 14.097 45.9224 14.0159C45.89 13.9592 45.8291 13.9267 45.7399 13.9186C45.5616 13.9024 45.4116 13.9267 45.2899 13.9916C45.0953 14.0808 44.925 14.1051 44.7791 14.0646C44.7629 14.0646 44.7467 14.0646 44.7304 14.0646C44.6412 14.0727 44.5845 14.0808 44.5602 14.0889C44.4547 14.1132 44.3453 14.1011 44.2318 14.0524C43.8588 13.8902 43.6804 13.8132 43.6966 13.8213C43.5425 13.7483 43.3358 13.6875 43.0763 13.6389C43.0358 13.6308 42.9709 13.6267 42.8817 13.6267C42.7925 13.6348 42.7276 13.6348 42.6871 13.6267C42.4357 13.5943 42.31 13.5781 42.31 13.5781C42.2046 13.5781 42.1114 13.6064 42.0303 13.6632C41.9492 13.7118 41.8965 13.7727 41.8722 13.8456C41.8641 13.8862 41.86 13.9429 41.86 14.0159C41.8519 14.1213 41.8357 14.1943 41.8114 14.2348C41.7546 14.3403 41.71 14.5105 41.6776 14.7457C41.6046 15.1673 41.5276 15.5038 41.4465 15.7552C41.4303 15.7957 41.4465 15.8241 41.4951 15.8403C41.7627 15.889 41.8722 15.9052 41.8235 15.889C41.9614 15.9376 42.1641 15.9336 42.4317 15.8768C42.456 15.8768 42.4965 15.8687 42.5533 15.8525C42.8939 15.7309 43.2506 15.6782 43.6236 15.6944C43.9723 15.7106 44.1791 15.7268 44.2439 15.743C44.3737 15.7755 44.5399 15.7714 44.7426 15.7309C44.7831 15.7228 44.9372 15.7106 45.2048 15.6944C45.2291 15.6944 45.2737 15.6903 45.3386 15.6822C45.4034 15.6822 45.4521 15.6822 45.4845 15.6822C45.5494 15.6741 45.6021 15.6457 45.6426 15.5971C45.7075 15.5079 45.7927 15.4795 45.8981 15.5119C46.1413 15.6011 46.2913 15.6579 46.3481 15.6822C46.5346 15.7633 46.6684 15.8687 46.7495 15.9984C46.8062 16.0876 46.8954 16.1363 47.017 16.1444C47.0738 16.1525 47.1265 16.1647 47.1752 16.1809C47.2481 16.1971 47.313 16.2498 47.3698 16.339C47.4265 16.4282 47.4387 16.5174 47.4062 16.6066C47.3738 16.7039 47.3941 16.7809 47.4671 16.8377C47.4833 16.8539 47.5522 16.9309 47.6738 17.0688C47.69 17.085 47.6982 17.1012 47.6982 17.1174C47.7144 17.1661 47.7184 17.2026 47.7103 17.2269C47.7103 17.2431 47.7063 17.2715 47.6982 17.312C47.69 17.3445 47.686 17.3728 47.686 17.3972C47.6698 17.5026 47.7022 17.5796 47.7833 17.6283C47.8076 17.6445 47.8319 17.6647 47.8563 17.6891C47.8968 17.7296 47.9009 17.7823 47.8684 17.8472C47.8441 17.8715 47.8198 17.9039 47.7955 17.9445C47.7387 18.0094 47.7225 18.0783 47.7468 18.1513C47.7792 18.2648 47.7265 18.358 47.5887 18.431C47.4995 18.4797 47.4062 18.5202 47.3089 18.5526C47.1954 18.6013 47.1224 18.6378 47.09 18.6621L47.0657 18.6743L47.09 18.6499ZM57.0027 12.2037C57.0108 12.0334 57.0189 11.928 57.027 11.8874C57.027 11.8712 57.0148 11.8591 56.9905 11.8509C56.95 11.8428 56.9297 11.8631 56.9297 11.9118C56.9297 12.0415 56.9581 12.1388 57.0148 12.2037C56.9905 12.3983 57.0189 12.6496 57.1 12.9578C57.2459 13.4848 57.3513 13.9754 57.4162 14.4295C57.4568 14.6403 57.5095 14.847 57.5743 15.0498C57.5824 15.066 57.5987 15.066 57.623 15.0498C57.6473 15.0416 57.6595 15.0295 57.6595 15.0133C57.6676 14.8997 57.6432 14.7011 57.5865 14.4173C57.5135 14.0929 57.4649 13.8659 57.4405 13.7362C57.4162 13.6227 57.3838 13.4848 57.3432 13.3226C57.1973 12.7875 57.1162 12.4753 57.1 12.3861C57.0919 12.3131 57.0594 12.2523 57.0027 12.2037ZM51.4565 14.1254C51.5456 14.0848 51.6105 14.0362 51.6511 13.9794C51.7565 13.8254 51.9146 13.6267 52.1254 13.3835C52.3687 13.0915 52.5308 12.8929 52.6119 12.7875C52.7173 12.6577 52.989 12.3212 53.4268 11.778C53.5566 11.6239 53.6295 11.4658 53.6458 11.3036C53.662 11.1171 53.6701 11.0401 53.6701 11.0725C53.6782 10.9996 53.6741 10.9468 53.6579 10.9144C53.6174 10.7847 53.5322 10.363 53.4025 9.64948C53.3863 9.55218 53.3457 9.30082 53.2809 8.89539C53.2728 8.84674 53.2484 8.83458 53.2079 8.8589C53.1917 8.86701 53.1795 8.88323 53.1714 8.90755C53.1552 8.96431 53.1309 8.99269 53.0984 8.99269C53.0741 8.99269 53.0538 8.96837 53.0376 8.91972C52.9809 8.6197 52.9646 8.32779 52.989 8.044C53.0052 7.86561 52.9971 7.62641 52.9646 7.32639C52.9646 7.31828 52.9525 7.22909 52.9281 7.05881C52.9119 6.98584 52.9322 6.91691 52.989 6.85205C53.0376 6.77907 53.0579 6.70609 53.0498 6.63312C53.0011 6.3331 52.9727 6.17093 52.9646 6.1466C52.9322 5.96011 52.9606 5.79794 53.0498 5.66009C53.0741 5.61955 53.0822 5.56279 53.0741 5.48982C53.0741 5.45738 53.0903 5.42495 53.1228 5.39251C53.2119 5.30332 53.2444 5.19385 53.2201 5.06412C53.139 4.68302 53.0863 4.46003 53.0619 4.39517C53.0133 4.22489 53.0295 4.04245 53.1106 3.84784C53.1349 3.78297 53.1876 3.72216 53.2687 3.6654C53.3092 3.64107 53.3174 3.60864 53.293 3.5681C53.2444 3.49512 53.2241 3.46674 53.2322 3.48296C53.2079 3.4262 53.2363 3.38971 53.3174 3.37349C53.4471 3.34106 53.5039 3.3289 53.4876 3.337C53.5201 3.3289 53.5566 3.30863 53.5971 3.27619C53.6701 3.21132 53.7025 3.1424 53.6944 3.06942C53.6863 3.02888 53.6782 2.97618 53.6701 2.91131C53.6539 2.83833 53.6458 2.78563 53.6458 2.75319C53.6376 2.70454 53.6579 2.67211 53.7066 2.65589C53.7471 2.63967 53.7795 2.63562 53.8039 2.64373C53.8687 2.66805 53.9133 2.69643 53.9377 2.72887C54.0674 2.91536 54.1971 3.05321 54.3269 3.1424C54.3998 3.19105 54.4971 3.28835 54.6188 3.43431C54.7242 3.57215 54.8418 3.72216 54.9715 3.88433C54.9877 3.90055 54.9999 3.90055 55.008 3.88433C55.0242 3.86811 55.0323 3.8519 55.0323 3.83568C55.0323 3.78703 55.0283 3.75459 55.0201 3.73838C54.9472 3.55999 54.8904 3.43025 54.8499 3.34917C54.785 3.21943 54.8093 3.10186 54.9228 2.99645C54.9147 2.99645 54.9674 2.91536 55.081 2.75319C55.1053 2.72076 55.1215 2.72076 55.1296 2.75319C55.1702 2.89915 55.2269 3.0005 55.2999 3.05726C55.4621 3.17078 55.5958 3.34917 55.7013 3.59242C56.0094 4.30597 56.2486 4.91006 56.4189 5.40468C56.4432 5.46954 56.4513 5.52225 56.4432 5.56279C56.4026 5.68442 56.4148 5.83037 56.4797 6.00065C56.5932 6.30878 56.6824 6.61284 56.7473 6.91286C56.7554 6.93718 56.7756 6.96556 56.8081 6.998C56.8405 7.02232 56.877 7.01827 56.9175 6.98584C57.0392 6.87232 57.1365 6.72231 57.2094 6.53581V6.54798C57.3635 6.41013 57.4405 6.26418 57.4405 6.11012C57.4405 6.08579 57.4486 6.06957 57.4649 6.06147C57.4649 6.05336 57.4892 6.02498 57.5378 5.97633C57.5865 5.81416 57.6757 5.65604 57.8054 5.50198C57.8946 5.39657 57.9595 5.29521 58 5.19791C58.0406 5.07628 58.1095 4.95465 58.2068 4.83303C58.6203 4.31408 58.823 4.05866 58.8149 4.06677C58.9447 3.92893 59.1433 3.69378 59.4109 3.36133C59.6461 3.06132 59.7474 2.93158 59.715 2.97212C59.7717 2.89104 59.8244 2.8059 59.8731 2.7167C59.9055 2.64373 59.9663 2.60724 60.0555 2.60724C60.1042 2.59913 60.1407 2.58291 60.165 2.55859C60.2866 2.40453 60.4285 2.23019 60.5907 2.03559C60.7772 1.78422 60.911 1.60584 60.9921 1.50043C61.0894 1.36258 61.211 1.25312 61.3569 1.17203L61.4542 1.09906C61.511 1.0504 61.584 1.03824 61.6732 1.06257C61.7299 1.07878 61.7705 1.05446 61.7948 0.98959C61.8029 0.973373 61.811 0.944993 61.8191 0.904451C61.8353 0.872017 61.8475 0.843637 61.8556 0.819311C61.8881 0.730118 61.9327 0.713901 61.9894 0.77066C62.0867 0.876071 62.1313 0.924722 62.1232 0.916614C62.1637 0.957156 62.2205 0.969319 62.2935 0.953102C62.3827 0.944993 62.4435 0.908505 62.4759 0.843637C62.5489 0.738226 62.6178 0.63687 62.6827 0.539568C62.707 0.507134 62.7354 0.482808 62.7678 0.466591C62.7922 0.450374 62.8286 0.442266 62.8773 0.442266C62.8935 0.442266 62.9057 0.454428 62.9138 0.478754C62.9219 0.527405 62.9219 0.563893 62.9138 0.588219C62.9138 0.63687 62.9057 0.673358 62.8895 0.697684C62.7759 0.932831 62.6989 1.1923 62.6584 1.4761C62.6259 1.6626 62.5651 1.84909 62.4759 2.03559C62.4354 2.12478 62.3908 2.23425 62.3421 2.36398C62.3178 2.41263 62.3219 2.46939 62.3543 2.53426C62.3786 2.58291 62.4151 2.55048 62.4638 2.43696C62.5205 2.30722 62.557 2.23425 62.5732 2.21803C62.63 2.12884 62.7151 2.01532 62.8286 1.87747C62.8692 1.82882 62.9219 1.80855 62.9868 1.81666C63.0841 1.83288 63.1773 1.82477 63.2665 1.79233L63.2543 1.78017C63.2462 1.82071 63.23 1.92612 63.2057 2.0964C63.1895 2.22614 63.1651 2.32749 63.1327 2.40047C63.003 2.72481 62.8611 3.01266 62.707 3.26403C62.6665 3.3289 62.6016 3.44242 62.5124 3.60459C62.4232 3.75054 62.3543 3.86406 62.3056 3.94514C62.2651 4.01001 62.107 4.28976 61.8313 4.78437C61.734 4.95465 61.5678 5.21413 61.3326 5.56279C61.0894 5.92767 60.9353 6.16688 60.8704 6.2804C60.838 6.35337 60.7894 6.41824 60.7245 6.475C60.5704 6.61284 60.4083 6.81961 60.238 7.0953C60.1569 7.23315 59.9704 7.53316 59.6785 7.99535C59.4352 8.36834 59.2487 8.67241 59.119 8.90755C59.1271 8.89134 59.1149 8.90755 59.0825 8.9562C59.0176 9.06162 58.9203 9.12648 58.7906 9.15081L58.7784 9.12648L58.7906 9.15081L58.7055 9.22379C58.6487 9.28055 58.6325 9.3292 58.6568 9.36974C58.7055 9.43461 58.7014 9.51975 58.6446 9.62516C58.5636 9.763 58.45 9.86841 58.3041 9.94139C58.3041 9.90896 58.3041 9.89274 58.3041 9.89274C58.3041 9.88463 58.3 9.87247 58.2919 9.85625C58.2757 9.88868 58.2838 9.91706 58.3163 9.94139L58.073 10.136C58.0568 10.1522 58.0406 10.1684 58.0243 10.1846C57.9676 10.2252 57.923 10.2941 57.8906 10.3914C57.7851 10.4887 57.6554 10.6671 57.5013 10.9266C57.4446 11.032 57.4203 11.1455 57.4284 11.2671C57.4365 11.3482 57.4486 11.4374 57.4649 11.5347C57.4973 11.7455 57.5216 11.9077 57.5378 12.0212C57.5703 12.1753 57.5824 12.3212 57.5743 12.4591C57.55 12.8483 57.6108 13.2213 57.7568 13.5781C57.8297 13.7483 57.8541 13.9065 57.8297 14.0524C57.8135 14.174 57.8216 14.3362 57.8541 14.5389C57.927 14.9849 57.9635 15.22 57.9635 15.2444C57.9879 15.3903 57.9757 15.52 57.927 15.6336C57.9027 15.6903 57.9027 15.7633 57.927 15.8525C57.9919 16.2174 58.0973 16.5133 58.2433 16.7404C58.2838 16.8052 58.2879 16.8782 58.2554 16.9593C58.223 17.0485 58.2311 17.1336 58.2798 17.2147C58.3041 17.2553 58.3527 17.3404 58.4257 17.4701C58.4825 17.5756 58.5311 17.6566 58.5717 17.7134C58.6203 17.8026 58.6325 17.9283 58.6082 18.0904C58.6082 18.1148 58.6001 18.135 58.5838 18.1513C58.5757 18.1594 58.5392 18.1999 58.4744 18.2729C58.5555 18.3053 58.6001 18.3256 58.6082 18.3337C58.6325 18.3418 58.6446 18.354 58.6446 18.3702C58.6528 18.4107 58.6365 18.4432 58.596 18.4675C58.596 18.4675 58.5555 18.4797 58.4744 18.504C58.4095 18.5364 58.3527 18.5932 58.3041 18.6743C58.2554 18.7553 58.2514 18.8283 58.2919 18.8932C58.3 18.9094 58.3122 18.9297 58.3284 18.954C58.3527 18.9864 58.369 19.0067 58.3771 19.0148C58.4338 19.1121 58.4095 19.1891 58.3041 19.2459C58.2473 19.2865 58.2149 19.3108 58.2068 19.3189C58.1825 19.4 58.15 19.5094 58.1095 19.6473C58.1014 19.6878 58.1095 19.7608 58.1338 19.8662C58.1419 19.8905 58.15 19.9432 58.1581 20.0243L58.146 20.0851C58.1379 20.1338 58.1054 20.1703 58.0487 20.1946C58 20.227 57.9554 20.2351 57.9149 20.2189C57.8338 20.1703 57.7284 20.0811 57.5987 19.9513C57.55 19.9027 57.5054 19.8743 57.4649 19.8662C57.3919 19.8581 57.3432 19.8176 57.3189 19.7446C57.2621 19.6067 57.2378 19.5419 57.2459 19.55C57.1892 19.4365 57.0919 19.404 56.954 19.4527C56.8892 19.4851 56.7959 19.5054 56.6743 19.5135C56.4959 19.5378 56.354 19.4811 56.2486 19.3432C56.127 19.1648 56.0215 19.031 55.9324 18.9418C55.7377 18.7148 55.4499 18.3215 55.0688 17.7621C54.9877 17.6485 54.9472 17.535 54.9472 17.4215C54.9472 17.3161 54.9188 17.2147 54.862 17.1174C54.7161 16.8904 54.5782 16.5904 54.4485 16.2174C54.3674 15.9984 54.2904 15.8403 54.2174 15.743C54.185 15.6944 54.1323 15.6944 54.0593 15.743C53.9863 15.8079 53.9174 15.8849 53.8525 15.9741C53.4147 16.6309 53.1998 16.9512 53.2079 16.935C53.1187 17.0566 53.0538 17.1336 53.0133 17.1661C52.9646 17.1904 52.9281 17.1904 52.9038 17.1661C52.8876 17.1499 52.8836 17.1336 52.8917 17.1174C52.8998 17.0931 52.916 17.0485 52.9403 16.9836C52.9646 16.9269 52.9849 16.8823 53.0011 16.8498C53.0011 16.8336 53.0173 16.7566 53.0498 16.6187C53.1065 16.5782 53.1592 16.5012 53.2079 16.3877C53.3214 16.2741 53.4228 16.1241 53.512 15.9376C53.5849 15.8647 53.6417 15.7511 53.6822 15.5971L53.7187 15.5849L53.6944 15.6092C53.6214 15.6822 53.5647 15.7957 53.5241 15.9498C53.3863 16.0228 53.293 16.1363 53.2444 16.2904L53.2079 16.3998C53.1349 16.4485 53.0863 16.5214 53.0619 16.6187C52.989 16.6755 52.92 16.7525 52.8552 16.8498C52.1173 17.9526 51.6957 18.5972 51.5902 18.7837C51.501 18.9459 51.2254 19.3919 50.7632 20.1216C50.6983 20.2189 50.6253 20.3203 50.5442 20.4257C50.4875 20.4987 50.4186 20.5271 50.3375 20.5108C50.2969 20.4946 50.2645 20.5068 50.2402 20.5473C50.1834 20.6852 50.1145 20.8068 50.0334 20.9122C49.9604 21.0176 49.9077 21.0825 49.8753 21.1068C49.7537 21.1798 49.6199 21.3298 49.4739 21.5568C49.3604 21.7271 49.2104 21.8041 49.0239 21.7879C48.9266 21.7798 48.8415 21.8204 48.7685 21.9096C48.7279 21.9663 48.7036 21.9987 48.6955 22.0069C48.6063 22.1609 48.4158 22.3109 48.1239 22.4569C48.1157 22.465 48.0955 22.469 48.063 22.469C47.9414 22.469 47.8644 22.542 47.8319 22.688C47.8238 22.7447 47.7995 22.7731 47.759 22.7731C47.7184 22.7731 47.6941 22.7528 47.686 22.7123L47.6617 22.6636C47.6292 22.5663 47.54 22.5258 47.3941 22.542C47.3292 22.5501 47.2765 22.5785 47.236 22.6272C47.2603 22.5947 47.2157 22.6596 47.1022 22.8218C47.0697 22.8542 47.0292 22.9028 46.9806 22.9677C46.9238 23.0326 46.8711 23.0447 46.8224 23.0042C46.79 22.9637 46.7738 22.915 46.7738 22.8583C46.7738 22.842 46.7778 22.8258 46.7859 22.8096C46.8914 22.5663 46.9603 22.3434 46.9927 22.1406C47.0008 22.0596 47.0657 21.8528 47.1873 21.5203C47.2116 21.4474 47.2522 21.3582 47.3089 21.2528C47.3495 21.1555 47.3495 21.046 47.3089 20.9244C47.3171 20.9163 47.3292 20.9041 47.3454 20.8879C47.3617 20.8717 47.3738 20.8595 47.3819 20.8514C47.3738 20.8433 47.3657 20.8392 47.3576 20.8392L47.3211 20.9244C47.2481 21.0136 47.2076 21.0622 47.1995 21.0703C47.167 21.1271 47.1184 21.2122 47.0535 21.3257C46.9806 21.4474 46.9319 21.5325 46.9076 21.5812C46.8508 21.6785 46.7657 21.7068 46.6522 21.6663C46.6522 21.6582 46.6076 21.6379 46.5184 21.6055C46.5184 21.5649 46.5143 21.5082 46.5062 21.4352C46.4981 21.3298 46.5143 21.2203 46.5549 21.1068C46.644 20.8473 46.7535 20.6122 46.8833 20.4014C46.9724 20.2635 47.1711 19.927 47.4792 19.3919C47.7306 18.9783 47.9374 18.6418 48.0995 18.3824C48.213 18.2121 48.3185 18.0904 48.4158 18.0175C48.5212 17.9283 48.6387 17.7864 48.7685 17.5918C48.9063 17.3728 49.1212 17.0566 49.4131 16.6431C49.7131 16.2052 49.928 15.8849 50.0577 15.6822C50.0658 15.6741 50.1023 15.6255 50.1672 15.5363C50.224 15.4714 50.2929 15.4349 50.374 15.4268C50.3902 15.4268 50.4105 15.4268 50.4348 15.4268C50.524 15.4187 50.601 15.3619 50.6659 15.2565C50.6659 15.2565 50.6821 15.22 50.7145 15.1471L50.7024 15.1592C50.7591 15.1187 50.8118 15.0416 50.8605 14.9281C50.9335 14.8389 50.9497 14.7619 50.9091 14.697C50.9416 14.6078 50.9902 14.5308 51.0551 14.4659C51.0875 14.5146 51.1281 14.5146 51.1767 14.4659L51.1645 14.4781L51.3105 14.3565H51.2983C51.3713 14.3078 51.424 14.2308 51.4565 14.1254Z" fill="black"/>
</svg>
