<svg width="18" height="9" viewBox="0 0 18 9" fill="none" xmlns="http://www.w3.org/2000/svg">
<path d="M13.5571 0C12.3713 0 11.2564 0.467709 10.4347 1.29792L8.99897 2.69375L7.58485 1.31875C6.74666 0.467709 5.62976 0 4.44292 0C3.25608 0 2.14021 0.469792 1.30305 1.31875C0.462804 2.16875 0 3.29792 0 4.50104C0 5.70104 0.461776 6.83229 1.30202 7.68125C2.13918 8.53125 3.25506 9 4.44292 9C5.62873 9 6.74563 8.53229 7.56531 7.7L9 6.30625L10.4152 7.68125C11.2533 8.53125 12.3702 9 13.5571 9C14.7439 9 15.8588 8.53229 16.6969 7.68125C17.5372 6.83333 18 5.70208 18 4.49896C18 3.29583 17.5382 2.16771 16.698 1.31667C15.8577 0.467708 14.7429 0 13.5571 0ZM5.76551 5.83854C5.05896 6.55521 3.82791 6.55521 3.12033 5.83854C2.76654 5.48021 2.57216 5.00417 2.57216 4.5C2.57216 3.99375 2.76654 3.51979 3.12239 3.15937C3.47412 2.80104 3.94412 2.60417 4.44292 2.60417C4.94172 2.60417 5.41172 2.80104 5.78505 3.17813L7.14364 4.50104L5.76551 5.83854ZM14.8786 5.83854C14.1721 6.55625 12.9595 6.57292 12.2149 5.81979L10.8564 4.49688L12.2335 3.15833C12.941 2.44167 14.1731 2.44167 14.8797 3.15625C15.2335 3.51667 15.4278 3.99063 15.4278 4.49688C15.4278 5.00313 15.2324 5.48021 14.8786 5.83854Z" fill="black"/>
</svg>
