<svg xmlns="http://www.w3.org/2000/svg" width="56" height="56" fill="none"><rect width="56" height="56" fill="#21CF9A" rx="8"/><path fill="#000" d="M27.808 8.11c-1.225.01-2.447.119-3.654.326l.012 5.84a14.736 14.736 0 0 0-7.915 5.121 14.268 14.268 0 0 0-3.088 8.796 14.071 14.071 0 0 0 3.033 8.76l1.931-1.46a11.722 11.722 0 0 1-2.526-7.3c.01-2.55.845-5.03 2.384-7.085a12.266 12.266 0 0 1 6.18-4.346v3.297a9.007 9.007 0 0 0-3.994 3.356 8.76 8.76 0 0 0-1.42 4.969 8.77 8.77 0 0 0 1.636 4.904 9.029 9.029 0 0 0 4.137 3.186v5.541h2.438V37.04a8.859 8.859 0 0 0 2.004-.033v8.835c-.386.025-.768.041-1.158.041-3.856 0-7.61-1.213-10.71-3.461a17.701 17.701 0 0 1-6.52-9.028 17.377 17.377 0 0 1 .221-11.064 17.738 17.738 0 0 1 6.877-8.77l-1.373-1.979a20.136 20.136 0 0 0-7.809 9.957 19.726 19.726 0 0 0-.251 12.561 20.095 20.095 0 0 0 7.404 10.25 20.728 20.728 0 0 0 12.161 3.927 22.462 22.462 0 0 0 3.59-.304l.007-5.847a14.731 14.731 0 0 0 7.949-5.115 14.26 14.26 0 0 0 3.1-8.817A14.065 14.065 0 0 0 39.47 19.5l-1.94 1.452a11.728 11.728 0 0 1 2.486 7.246 11.882 11.882 0 0 1-2.397 7.106 12.258 12.258 0 0 1-6.215 4.34v-3.285a9.075 9.075 0 0 0 2.865-1.933l-1.739-1.673a6.658 6.658 0 0 1-3.378 1.807 6.738 6.738 0 0 1-3.832-.34 6.598 6.598 0 0 1-2.991-2.376 6.413 6.413 0 0 1-1.14-3.606 6.41 6.41 0 0 1 1.096-3.619 6.594 6.594 0 0 1 2.962-2.41 6.737 6.737 0 0 1 3.828-.385 6.66 6.66 0 0 1 3.4 1.768l1.719-1.696a9.046 9.046 0 0 0-2.79-1.855v-5.57h-2.438v4.91a9.279 9.279 0 0 0-1.158-.075c-.402.001-.803.029-1.202.084v-8.843a18.262 18.262 0 0 1 11.8 3.339 17.713 17.713 0 0 1 6.548 8.85 17.377 17.377 0 0 1-.005 10.936 17.713 17.713 0 0 1-6.556 8.843l1.433 1.936a20.109 20.109 0 0 0 7.444-10.04 19.725 19.725 0 0 0 .006-12.416 20.105 20.105 0 0 0-7.434-10.046A20.73 20.73 0 0 0 27.808 8.11Z"/><rect width="56" height="56" fill="#000" rx="8"/><path fill="#fff" fill-rule="evenodd" d="M13.557 13.325c1.77-1.742 4.955-2.022 8.96-.651a26.155 26.155 0 0 1 4.81 2.262A41.544 41.544 0 0 0 14.95 27.12a26.141 26.141 0 0 1-2.187-4.847c-1.307-4.026-.976-7.206.794-8.948Zm.907 14.567c-3.668-6.23-4.46-12.207-1.474-15.143 2.985-2.936 8.947-2.05 15.117 1.716 6.23-3.667 12.205-4.459 15.143-1.473 2.938 2.984 2.05 8.946-1.715 15.116 3.667 6.23 4.459 12.203 1.474 15.141-2.985 2.939-8.947 2.052-15.117-1.713-6.23 3.666-12.208 4.458-15.143 1.473-2.935-2.985-2.051-8.946 1.715-15.117Zm12.655 13.16a26.151 26.151 0 0 1-4.847 2.186c-4.026 1.306-7.206.976-8.948-.794s-2.02-4.955-.65-8.96a26.146 26.146 0 0 1 2.261-4.81 40.255 40.255 0 0 0 5.435 6.83 40.25 40.25 0 0 0 6.75 5.547Zm.78-.461a39.18 39.18 0 0 1-6.947-5.655 39.19 39.19 0 0 1-5.542-7.037A40.58 40.58 0 0 1 28.1 15.412a39.19 39.19 0 0 1 6.948 5.655 39.187 39.187 0 0 1 5.54 7.039 39.181 39.181 0 0 1-5.655 6.947 39.182 39.182 0 0 1-7.034 5.537v.002Zm.774.472a26.155 26.155 0 0 0 4.81 2.262c4.005 1.374 7.19 1.091 8.959-.65 1.77-1.742 2.1-4.922.794-8.948a26.144 26.144 0 0 0-2.187-4.848 40.26 40.26 0 0 1-5.545 6.745 40.264 40.264 0 0 1-6.832 5.438v.001Zm12.39-13.733a26.152 26.152 0 0 0 2.261-4.81c1.373-4.006 1.09-7.19-.651-8.96-1.742-1.77-4.922-2.101-8.948-.795a26.145 26.145 0 0 0-4.847 2.187 40.245 40.245 0 0 1 6.744 5.544 40.249 40.249 0 0 1 5.44 6.832v.002Zm-13.064-7.651a8.606 8.606 0 0 0 8.366 8.366A8.606 8.606 0 0 0 28 36.409a8.606 8.606 0 0 0-8.365-8.364 8.606 8.606 0 0 0 8.365-8.366Z" clip-rule="evenodd"/></svg>