<svg width="27" height="33" viewBox="0 0 27 33" fill="none" xmlns="http://www.w3.org/2000/svg">
<path d="M3.03907 16.5L3.05582 22.6414L8.27415 25.7121V29.3076L0.00186171 24.4559V14.7041L3.03907 16.5ZM3.03907 10.3586V13.9373L0 12.1396V8.56082L3.03907 6.76306L6.09302 8.56082L3.03907 10.3586ZM10.4534 8.56082L13.4925 6.76306L16.5464 8.56082L13.4925 10.3586L10.4534 8.56082Z" fill="black"/>
<path d="M5.2356 21.3684V17.7729L8.27466 19.5707V23.1495L5.2356 21.3684ZM10.4539 26.9999L13.493 28.7977L16.547 26.9999V30.5787L13.493 32.3765L10.4539 30.5787V26.9999ZM20.9055 8.56082L23.9446 6.76306L26.9985 8.56082V12.1396L23.9446 13.9373V10.3586L20.9055 8.56082ZM23.9446 22.6414L23.9613 16.5L27.0004 14.7022V24.454L18.7281 29.3058V25.7102L23.9446 22.6414Z" fill="black"/>
<path d="M21.7649 21.3684L18.7258 23.1494V19.5706L21.7649 17.7729V21.3684Z" fill="black"/>
<path d="M21.7653 11.6315L21.782 15.227L16.5488 18.2977V24.454L13.5097 26.235L10.4707 24.454V18.2977L5.23746 15.227V11.6315L8.28955 9.83373L13.4911 12.9193L18.7244 9.83373L21.7783 11.6315H21.7653ZM5.2356 5.49194L13.493 0.623474L21.7653 5.49194L18.7262 7.28969L13.493 4.2041L8.27466 7.28969L5.2356 5.49194Z" fill="black"/>
</svg>
